<svg width="26" height="26" fill="none" xmlns="http://www.w3.org/2000/svg"><path d="M23.8 19.857c0 .39-.086.791-.27 1.181a4.47 4.47 0 01-.737 1.105c-.53.585-1.116 1.008-1.776 1.279a5.44 5.44 0 01-2.113.411c-1.105 0-2.286-.26-3.531-.79-1.246-.531-2.492-1.246-3.727-2.146a31.144 31.144 0 01-3.553-3.033 30.785 30.785 0 01-3.023-3.543c-.888-1.235-1.603-2.47-2.123-3.694-.52-1.235-.78-2.416-.78-3.542 0-.737.13-1.441.39-2.091.26-.66.671-1.267 1.246-1.81.693-.682 1.451-1.018 2.253-1.018.303 0 .607.066.877.196.282.13.531.325.726.606l2.513 3.543c.195.27.336.52.434.758.097.228.152.455.152.66 0 .26-.076.52-.228.77-.14.25-.347.51-.607.77l-.823.855a.58.58 0 00-.173.433c0 .087.01.163.032.25.033.086.065.151.087.216.195.358.53.823 1.007 1.387a37.056 37.056 0 001.571 1.712 32.56 32.56 0 001.723 1.592c.563.477 1.029.802 1.397.997.054.021.12.054.195.086a.748.748 0 00.271.044.596.596 0 00.444-.184l.823-.813c.271-.27.531-.477.78-.607.25-.151.499-.227.77-.227.206 0 .422.043.66.14.239.098.488.239.759.423l3.586 2.546c.281.195.476.422.596.693.108.271.173.542.173.845z" stroke="currentColor" stroke-width="1.5" stroke-miterlimit="10"/></svg>