<svg width="42" height="16" viewBox="0 0 42 16" fill="none" xmlns="http://www.w3.org/2000/svg">
<path d="M0.5 7.5C0.223858 7.5 2.41411e-08 7.72386 0 8C-2.41411e-08 8.27614 0.223858 8.5 0.5 8.5L0.5 7.5ZM30.8333 8C30.8333 9.47276 32.0272 10.6667 33.5 10.6667C34.9728 10.6667 36.1667 9.47276 36.1667 8C36.1667 6.52725 34.9728 5.33334 33.5 5.33334C32.0272 5.33334 30.8333 6.52725 30.8333 8ZM0.5 8.5L33.5 8.5L33.5 7.5L0.5 7.5L0.5 8.5Z" fill="white"/>
<circle cx="33.5" cy="8" r="7.5" transform="rotate(-90 33.5 8)" stroke="white"/>
</svg>
