<?xml version="1.0" encoding="utf-8"?><svg viewBox="0 0 42 88" xmlns="http://www.w3.org/2000/svg" xmlns:xlink="http://www.w3.org/1999/xlink"><style>:root>svg{display:none}:root>svg:target{display:block}</style><svg fill="none" viewBox="0 0 16 88" id="hero--line" xmlns="http://www.w3.org/2000/svg"><path d="M8.5 1a.5.5 0 0 0-1 0h1zM8 77.333a2.667 2.667 0 1 0 0 5.334 2.667 2.667 0 0 0 0-5.334zM7.5 1v79h1V1h-1z" fill="currentColor"/><circle cx="8" cy="80" r="7.5" stroke="#fff"/></svg><svg fill="none" viewBox="0 0 14 14" id="icon--arrow_left" xmlns="http://www.w3.org/2000/svg"><path d="M8.802 2.38 5 6.183a1.16 1.16 0 0 0 0 1.634l3.803 3.803" stroke="#1C1C1C" stroke-width="1.3" stroke-miterlimit="10" stroke-linecap="round" stroke-linejoin="round"/></svg><svg fill="none" viewBox="0 0 14 14" id="icon--arrow_right" xmlns="http://www.w3.org/2000/svg"><path d="M5.198 11.62 9 7.817a1.16 1.16 0 0 0 0-1.634L5.198 2.38" stroke="#1C1C1C" stroke-width="1.3" stroke-miterlimit="10" stroke-linecap="round" stroke-linejoin="round"/></svg><svg fill="none" viewBox="0 0 13 13" id="icon--btn_arrow" xmlns="http://www.w3.org/2000/svg"><path d="m.763.737 11 10.643m-8.25 0h8.25m0 0V3.795" stroke="#fff" stroke-width="1.5" stroke-linecap="round"/></svg><svg fill="none" viewBox="0 0 16 88" id="icon--line" xmlns="http://www.w3.org/2000/svg"><path d="M8.5 1a.5.5 0 0 0-1 0h1zM8 77.333a2.667 2.667 0 1 0 0 5.334 2.667 2.667 0 0 0 0-5.334zM7.5 1v79h1V1h-1z" fill="currentColor"/><circle cx="8" cy="80" r="7.5" stroke="#fff"/></svg><svg fill="none" viewBox="0 0 42 16" id="icon--line_link" xmlns="http://www.w3.org/2000/svg"><path d="M.5 7.5a.5.5 0 0 0 0 1v-1zm30.333.5a2.667 2.667 0 1 0 5.334 0 2.667 2.667 0 0 0-5.334 0zM.5 8.5h33v-1H.5v1z" fill="#fff"/><circle cx="33.5" cy="8" r="7.5" transform="rotate(-90 33.5 8)" stroke="#fff"/></svg><svg fill="none" viewBox="0 0 26 26" id="icon--map" xmlns="http://www.w3.org/2000/svg"><path d="M13 14.55a3.38 3.38 0 1 0 0-6.761 3.38 3.38 0 0 0 0 6.76z" stroke="#1C1C1C" stroke-width="1.5"/><path d="M3.922 9.197c2.134-9.381 16.033-9.37 18.156.011 1.246 5.503-2.177 10.162-5.178 13.043a5.626 5.626 0 0 1-7.81 0C6.1 19.37 2.675 14.701 3.921 9.197z" stroke="currentColor" stroke-width="1.5"/></svg><svg fill="none" viewBox="0 0 26 26" id="icon--phone" xmlns="http://www.w3.org/2000/svg"><path d="M23.8 19.857c0 .39-.086.791-.27 1.181a4.47 4.47 0 0 1-.737 1.105c-.53.585-1.116 1.008-1.776 1.279a5.44 5.44 0 0 1-2.113.411c-1.105 0-2.286-.26-3.531-.79-1.246-.531-2.492-1.246-3.727-2.146a31.144 31.144 0 0 1-3.553-3.033 30.785 30.785 0 0 1-3.023-3.543c-.888-1.235-1.603-2.47-2.123-3.694-.52-1.235-.78-2.416-.78-3.542 0-.737.13-1.441.39-2.091.26-.66.671-1.267 1.246-1.81.693-.682 1.451-1.018 2.253-1.018.303 0 .607.066.877.196.282.13.531.325.726.606l2.513 3.543c.195.27.336.52.434.758.097.228.152.455.152.66 0 .26-.076.52-.228.77-.14.25-.347.51-.607.77l-.823.855a.58.58 0 0 0-.173.433c0 .087.01.163.032.25.033.086.065.151.087.216.195.358.53.823 1.007 1.387a37.056 37.056 0 0 0 1.571 1.712 32.56 32.56 0 0 0 1.723 1.592c.563.477 1.029.802 1.397.997.054.021.12.054.195.086a.748.748 0 0 0 .271.044.596.596 0 0 0 .444-.184l.823-.813c.271-.27.531-.477.78-.607.25-.151.499-.227.77-.227.206 0 .422.043.66.14.239.098.488.239.759.423l3.586 2.546c.281.195.476.422.596.693.108.271.173.542.173.845z" stroke="currentColor" stroke-width="1.5" stroke-miterlimit="10"/></svg><svg fill="none" viewBox="0 0 21 21" id="icon--star" xmlns="http://www.w3.org/2000/svg"><path d="m21 7.721-7.626-.501L10.5 0 7.626 7.22 0 7.72l5.851 4.96-1.92 7.534 6.569-4.151 6.568 4.15-1.92-7.532L21 7.721zm-10.5 6.887-4.613 2.915 1.347-5.284L3.11 8.75l5.372-.353 2.018-5.07 2.018 5.07 5.378.352-4.13 3.49 1.347 5.284-4.613-2.915z" fill="#fff"/></svg><svg fill="none" viewBox="0 0 22 22" id="revievs--rating-star" xmlns="http://www.w3.org/2000/svg"><path d="m22 8.089-7.994-.526L10.996 0l-3.01 7.563L0 8.09l6.125 5.2-2.01 7.889 6.88-4.35 6.882 4.35-2.01-7.889L22 8.09z" fill="#EC1C24"/></svg></svg>